<svg version="1.1" id="Layer_1" xmlns="http://www.w3.org/2000/svg" xmlns:xlink="http://www.w3.org/1999/xlink" x="0px" y="0px"
	 width="100%" viewBox="0 0 2560 729" enable-background="new 0 0 2560 729" xml:space="preserve">
<path fill="#000000" opacity="1.000000" stroke="none" 
	d="
M1684.000000,730.000000 
	C1122.666748,730.000000 561.833496,730.000000 1.000151,730.000000 
	C1.000100,487.000092 1.000100,244.000198 1.000050,1.000216 
	C854.333191,1.000144 1707.666382,1.000144 2560.999512,1.000072 
	C2560.999756,243.999771 2560.999756,486.999542 2561.000000,729.999634 
	C2268.833252,730.000000 1976.666626,730.000000 1684.000000,730.000000 
M1592.231934,144.509018 
	C1592.156738,145.168259 1592.015747,145.827484 1592.015625,146.486755 
	C1592.003906,233.781052 1591.998535,321.075348 1592.042725,408.369629 
	C1592.043335,409.524628 1592.677368,410.679291 1593.942383,411.970367 
	C1645.184448,411.970367 1696.426636,411.970367 1747.607910,411.970367 
	C1747.607910,399.958435 1747.607910,388.576691 1747.607910,376.834351 
	C1708.294678,376.834351 1669.372681,376.834351 1629.922363,376.834351 
	C1629.922363,299.103271 1629.922363,221.741058 1629.922363,144.165924 
	C1617.266968,144.165924 1605.141357,144.165924 1592.231934,144.509018 
M1591.217407,470.504639 
	C1591.144897,472.496674 1591.009644,474.488708 1591.009155,476.480774 
	C1590.997314,523.610229 1590.987183,570.739746 1591.006592,617.869202 
	C1591.013794,635.519287 1591.095947,653.169373 1591.307495,671.692749 
	C1601.397827,671.692749 1611.488037,671.692749 1622.126099,671.692749 
	C1622.126099,646.728088 1622.126099,622.015198 1622.126099,597.000000 
	C1635.646240,597.000000 1648.644165,597.504089 1661.577026,596.805847 
	C1669.011719,596.404358 1673.039551,599.296509 1677.196411,605.075989 
	C1692.878296,626.879944 1709.137695,648.269287 1725.288452,669.733032 
	C1726.142944,670.868530 1727.973511,671.878479 1729.367432,671.902344 
	C1739.859253,672.081970 1750.355469,672.013855 1760.850220,671.976624 
	C1761.878296,671.972961 1762.905273,671.655273 1764.310059,671.420227 
	C1744.086182,644.451477 1724.201782,617.935669 1704.307983,591.407043 
	C1706.889038,590.543518 1709.212891,589.795776 1711.516479,588.990295 
	C1723.825317,584.686401 1734.407104,578.024658 1742.327148,567.355225 
	C1751.455688,555.057556 1754.053345,541.366211 1753.146973,526.313538 
	C1752.240845,511.261810 1746.496216,498.571167 1735.789307,488.563721 
	C1723.343140,476.930664 1707.682739,470.701538 1690.938477,470.269287 
	C1657.981445,469.418518 1624.984741,470.112030 1591.217407,470.504639 
M1391.767944,411.490906 
	C1391.845215,409.498749 1391.986572,407.506714 1391.990356,405.514404 
	C1392.045410,377.026428 1392.081787,348.538452 1393.043701,320.008881 
	C1412.372437,320.005890 1431.705322,319.750793 1451.028809,320.065460 
	C1473.826294,320.436676 1495.170166,315.617188 1515.178223,304.472748 
	C1528.818726,296.875031 1539.703247,286.426239 1546.934570,272.882812 
	C1557.683838,252.750397 1559.694458,231.100800 1554.430298,208.928741 
	C1547.996216,181.828369 1531.200317,163.576019 1505.731323,152.938004 
	C1491.832031,147.132507 1477.365845,144.040283 1462.301147,144.016830 
	C1428.142578,143.963623 1393.984009,144.000107 1359.825439,144.000107 
	C1358.040894,144.000107 1356.256348,144.000107 1354.302490,144.000107 
	C1354.302490,233.545395 1354.302490,322.579895 1354.302490,411.834015 
	C1366.729736,411.834015 1378.856934,411.834015 1391.767944,411.490906 
M231.000443,282.522217 
	C231.000305,341.018280 230.953979,399.514435 231.038254,458.010376 
	C231.055542,470.001678 235.805679,480.538147 244.252792,488.601654 
	C253.696442,497.616486 265.849945,501.007782 278.892639,501.004669 
	C322.555939,500.994232 366.219269,500.970398 409.882385,501.062836 
	C413.096680,501.069641 415.409119,500.247437 417.710419,497.898895 
	C429.489868,485.877380 441.452881,474.035553 453.370087,462.149353 
	C454.332336,461.189667 455.433380,460.369110 457.206116,458.855255 
	C457.206116,530.467590 457.206116,601.049377 457.206116,671.622314 
	C472.004730,671.622314 486.387939,671.622314 500.999969,671.622314 
	C500.999969,669.425354 501.000000,667.604980 501.000000,665.784607 
	C501.000031,533.128235 501.062866,400.471741 500.935028,267.815460 
	C500.914917,246.949875 482.611328,228.205795 461.081085,228.149643 
	C341.591156,227.837921 222.099945,227.984344 102.609322,228.117523 
	C100.305389,228.120087 97.443619,229.302307 95.790070,230.909470 
	C83.721741,242.639328 71.982719,254.707764 59.930412,266.454559 
	C57.095985,269.217102 55.894726,271.922211 55.904537,275.941071 
	C56.044071,333.102936 55.803665,390.266449 56.136391,447.426758 
	C56.220642,461.900543 57.575623,476.408142 59.090900,490.821960 
	C60.977104,508.764160 66.398499,525.908447 73.759834,542.282104 
	C86.092995,569.714539 103.054726,593.864319 125.505539,614.210083 
	C140.310760,627.627136 156.495132,638.796692 174.118073,647.994568 
	C193.637817,658.182495 214.494949,664.513428 235.981308,668.922546 
	C242.876648,670.337646 249.675858,671.496216 254.544266,664.254761 
	C256.540558,661.285278 259.012512,658.588684 261.529968,656.025208 
	C269.469727,647.940247 277.543335,639.986816 285.536530,631.954041 
	C286.487610,630.998169 287.261841,629.866394 288.783478,628.000000 
	C285.655579,628.000000 283.695679,628.123535 281.755524,627.980042 
	C268.789429,627.020752 255.688797,626.847595 242.907608,624.743774 
	C232.420731,623.017578 222.194336,619.329041 212.066544,615.881470 
	C191.938049,609.029663 174.222900,597.804382 158.432236,583.778381 
	C139.138763,566.640930 124.152557,546.199036 114.057571,522.311157 
	C106.410675,504.216278 101.350182,485.306335 101.191437,465.763580 
	C100.678391,402.605988 101.000237,339.441559 101.000374,276.279785 
	C101.000374,274.666138 101.000366,273.052521 101.000366,271.340057 
	C115.595055,271.340057 129.644073,271.340057 144.000336,271.340057 
	C144.000336,273.654968 144.000336,275.632111 144.000336,277.609253 
	C144.000183,337.771271 143.930664,397.933472 144.087570,458.095093 
	C144.107193,465.625946 144.931076,473.212738 146.055527,480.672150 
	C149.882706,506.060699 162.116791,527.322876 179.399719,545.798706 
	C192.214813,559.498230 207.750565,569.539673 225.106613,576.472534 
	C240.238876,582.517090 256.046295,585.970398 272.458466,585.994080 
	C290.457031,586.020020 308.457001,586.102356 326.452667,585.873169 
	C328.760284,585.843811 331.596954,584.656677 333.253906,583.044983 
	C345.557129,571.078125 357.627960,558.872253 369.757751,546.727417 
	C370.738647,545.745300 371.614777,544.658630 372.948608,543.161377 
	C371.387787,543.081787 370.591309,543.012817 369.794189,543.004639 
	C336.859436,542.666321 303.919830,542.554626 270.993561,541.833008 
	C263.443970,541.667419 255.703369,540.175415 248.464218,537.949158 
	C232.703995,533.102234 219.512985,524.210571 208.763748,511.401398 
	C196.750397,497.085754 189.258957,480.933472 189.143784,462.341980 
	C188.761810,400.682434 188.999084,339.019073 188.998810,277.357178 
	C188.998795,275.402863 188.998795,273.448517 188.998795,271.312378 
	C203.204788,271.312378 216.920425,271.312378 231.000381,271.312378 
	C231.000381,274.923828 231.000381,278.227203 231.000443,282.522217 
M498.387665,60.002502 
	C485.655182,58.668358 472.929535,56.262241 460.189087,56.181393 
	C397.371674,55.782764 334.550323,55.983967 271.730530,56.085178 
	C269.982452,56.087994 267.784912,56.888996 266.558868,58.093407 
	C253.485214,70.936539 240.557709,83.928619 227.625870,96.915436 
	C226.930618,97.613640 226.554764,98.629890 225.727036,99.999908 
	C228.474350,99.999908 230.462784,99.999908 232.451218,99.999908 
	C307.101990,99.999901 381.752899,99.928589 456.403320,100.089783 
	C465.772980,100.110023 475.268127,100.606110 484.483276,102.180504 
	C508.384491,106.264023 530.643311,114.610016 551.360779,127.668953 
	C571.699585,140.489197 588.357178,156.775040 601.985657,176.262680 
	C622.601135,205.741196 631.857727,238.970001 631.915894,274.625580 
	C632.128418,404.930817 632.000000,535.236572 632.000000,665.542175 
	C632.000000,667.625488 632.000000,669.708801 632.000000,671.724854 
	C647.035767,671.724854 661.299438,671.724854 675.999756,671.724854 
	C675.999756,669.336487 675.999817,667.206055 675.999817,665.075684 
	C675.999939,532.270630 676.042419,399.465576 675.912598,266.660675 
	C675.903137,256.958588 675.424927,247.126587 673.817444,237.581863 
	C669.606995,212.581009 661.742432,188.752213 648.964417,166.669006 
	C639.483276,150.283508 628.240906,135.210266 615.007019,121.746780 
	C608.119263,114.739456 600.416626,108.479103 592.726013,102.326385 
	C577.774658,90.364876 561.457153,80.484840 543.457642,73.939224 
	C528.956177,68.665657 514.011108,64.611702 498.387665,60.002502 
M544.000427,483.500000 
	C544.000427,546.243652 544.000427,608.987244 544.000427,671.749390 
	C559.317932,671.749390 573.914795,671.749390 588.999390,671.749390 
	C588.999390,669.386230 588.999451,667.265564 588.999451,665.144897 
	C588.999573,537.999207 588.987732,410.853577 589.017578,283.707916 
	C589.020630,270.667969 588.695862,257.729950 586.110596,244.829346 
	C581.721863,222.929169 572.011780,203.743317 557.447815,187.091827 
	C548.886902,177.303818 538.841064,169.079056 527.725159,162.089386 
	C507.547546,149.401703 485.368225,142.392014 461.914337,142.241104 
	C370.266602,141.651443 278.612793,141.983932 186.961426,142.106766 
	C184.951752,142.109451 182.462540,143.211090 181.011154,144.631790 
	C168.389816,156.986374 155.948471,169.524979 143.476807,182.031998 
	C142.521042,182.990463 141.742355,184.125504 140.210449,185.998978 
	C143.320465,185.998978 145.266418,185.998978 147.212372,185.998978 
	C252.195038,185.999329 357.177765,185.954315 462.160187,186.122070 
	C467.952271,186.131317 473.848694,187.488525 479.512451,188.937881 
	C497.985168,193.665039 513.140259,203.511505 525.124146,218.520950 
	C536.874939,233.238510 543.745300,249.910568 543.845337,268.536163 
	C544.228271,339.855682 544.000366,411.178436 544.000427,483.500000 
M2126.000244,295.500000 
	C2126.000244,334.251068 2126.000244,373.002167 2126.000244,411.999908 
	C2128.555664,411.999908 2130.375244,411.999908 2132.194580,411.999908 
	C2161.027100,411.999908 2189.861084,411.843964 2218.691895,412.063965 
	C2233.723145,412.178650 2248.465088,410.784393 2263.072754,407.078278 
	C2277.452148,403.430115 2290.907715,397.653442 2303.330322,389.795685 
	C2323.370361,377.119415 2339.246582,360.308441 2349.513184,338.770966 
	C2356.282959,324.569489 2360.684326,309.660614 2362.176270,293.784058 
	C2363.672119,277.864929 2363.250488,262.191589 2359.962891,246.595932 
	C2355.641113,226.092499 2346.641113,207.638962 2333.130371,191.820633 
	C2320.261230,176.753510 2304.600098,164.949448 2286.187012,156.982132 
	C2266.848145,148.614197 2246.766357,144.040787 2225.691406,144.011414 
	C2194.358887,143.967758 2163.026367,144.000107 2131.693848,144.000122 
	C2129.921631,144.000122 2128.149414,144.000122 2126.000244,144.000122 
	C2126.000244,194.569595 2126.000244,244.534790 2126.000244,295.500000 
M1955.500000,144.000000 
	C1931.418213,144.000000 1907.336548,144.000000 1883.410889,144.000000 
	C1883.410889,233.763855 1883.410889,322.798035 1883.410889,411.713196 
	C1949.742065,411.713196 2015.662231,411.713196 2081.645020,411.713196 
	C2081.645020,400.041931 2081.645020,388.660309 2081.645020,376.732544 
	C2027.917236,376.732544 1974.541382,376.732544 1921.295166,376.732544 
	C1921.295166,349.251984 1921.295166,322.324341 1921.295166,294.840210 
	C1968.630371,294.840210 2015.673340,294.840210 2062.752686,294.840210 
	C2062.752686,282.683502 2062.752686,271.087860 2062.752686,258.942963 
	C2015.465332,258.942963 1968.421265,258.942963 1921.367188,258.942963 
	C1921.367188,232.010498 1921.367188,205.631866 1921.367188,178.882645 
	C1974.323242,178.882645 2026.913574,178.882645 2079.687988,178.882645 
	C2079.687988,167.126022 2079.687988,155.744980 2079.687988,144.000000 
	C2038.418091,144.000000 1997.458984,144.000000 1955.500000,144.000000 
M883.075684,234.643158 
	C878.183533,245.478729 873.270874,256.305084 868.404663,267.152283 
	C862.746399,279.764801 857.187134,292.421967 851.481812,305.013062 
	C839.570557,331.299866 827.574646,357.548248 815.649841,383.828857 
	C811.477173,393.024811 807.411194,402.269104 803.069702,411.999756 
	C812.353577,411.999756 821.030151,411.416229 829.591736,412.158356 
	C838.773560,412.954224 845.570374,411.480347 847.577515,401.050018 
	C848.019653,398.752472 849.927063,396.773132 850.910889,394.537750 
	C858.312988,377.719269 865.652832,360.873322 872.968140,344.136414 
	C918.829468,344.136414 964.139099,344.136414 1009.366943,344.136414 
	C1012.287720,350.673523 1015.180969,357.050171 1017.992859,363.462433 
	C1024.706787,378.772552 1031.337158,394.119812 1038.163208,409.379608 
	C1038.683838,410.543640 1040.469849,411.865662 1041.685425,411.883179 
	C1054.329102,412.065582 1066.976318,411.995544 1079.748901,411.995544 
	C1079.691772,411.186432 1079.788208,410.656860 1079.606445,410.252289 
	C1074.926270,399.836273 1070.192871,389.444183 1065.517822,379.025909 
	C1053.996582,353.351746 1042.547729,327.644897 1030.978882,301.992249 
	C1020.663330,279.118561 1010.239868,256.293427 999.834290,233.460419 
	C996.323547,225.756760 992.637146,218.132507 989.177551,210.406342 
	C979.403442,188.577988 969.741882,166.699127 959.884949,144.908447 
	C959.307068,143.630905 957.414368,142.162277 956.099915,142.129517 
	C946.605957,141.892914 937.102173,141.934189 927.604919,142.092529 
	C926.421814,142.112259 924.677856,143.046295 924.179688,144.047333 
	C920.696655,151.046432 917.383118,158.134308 914.183289,165.269089 
	C903.916199,188.162125 893.721802,211.087784 883.075684,234.643158 
M1298.491211,285.006622 
	C1300.534424,282.283478 1302.789062,279.692169 1304.582764,276.813660 
	C1311.163696,266.252411 1314.633545,254.741989 1316.198486,242.336182 
	C1318.335083,225.400360 1316.134888,209.269760 1309.299927,193.815765 
	C1300.442139,173.787857 1284.876465,160.701492 1264.927856,152.458572 
	C1253.401123,147.695679 1241.312988,144.355713 1228.957764,144.182999 
	C1192.303345,143.670593 1155.637207,143.999878 1118.975586,144.000092 
	C1117.391968,144.000107 1115.808350,144.000092 1114.259766,144.000092 
	C1114.259766,233.682312 1114.259766,322.605194 1114.259766,411.665466 
	C1126.901367,411.665466 1139.281616,411.665466 1152.223633,411.665466 
	C1152.223633,380.951965 1152.223633,350.569000 1152.223633,320.000000 
	C1169.278320,320.000000 1185.769653,320.111603 1202.258423,319.956390 
	C1211.526001,319.869202 1220.817993,319.690063 1230.048828,318.936798 
	C1247.517578,317.511292 1263.887085,312.068512 1278.503662,302.527496 
	C1285.650879,297.862000 1291.531494,291.256073 1298.491211,285.006622 
M848.000366,553.500000 
	C848.000366,544.557007 848.000366,535.614014 848.000366,526.671021 
	C857.403137,538.887207 865.753906,551.123169 874.081543,563.375000 
	C886.087280,581.038330 898.066711,598.719482 910.080322,616.377441 
	C912.551025,620.009094 917.207825,620.259033 919.614136,616.740112 
	C932.851074,597.382446 945.999329,577.964294 959.189941,558.574890 
	C966.476013,547.864868 973.785339,537.170593 981.084229,526.469177 
	C981.433228,526.569946 981.782288,526.670654 982.131348,526.771423 
	C982.131348,575.099670 982.131348,623.427917 982.131348,671.740356 
	C992.339417,671.740356 1001.936340,671.740356 1011.690796,671.740356 
	C1011.690796,604.444092 1011.690796,537.407959 1011.690796,470.003967 
	C1002.752075,470.003967 994.116028,469.902435 985.487854,470.116669 
	C984.235168,470.147766 982.653503,471.432281 981.847961,472.576172 
	C977.139709,479.261963 972.575195,486.050537 968.039551,492.855988 
	C950.520386,519.141968 933.030518,545.447327 915.377380,571.974426 
	C914.774475,571.139771 914.377930,570.628052 914.020386,570.090393 
	C892.499084,537.729675 870.988098,505.362091 849.433228,473.023773 
	C848.671143,471.880402 847.495605,470.190277 846.479736,470.166534 
	C837.065735,469.946228 827.644409,470.036377 818.247375,470.036377 
	C818.247375,537.667297 818.247375,604.585571 818.247375,671.687256 
	C828.210327,671.687256 837.924744,671.687256 848.000366,671.687256 
	C848.000366,632.416870 848.000366,593.458435 848.000366,553.500000 
M1435.999756,619.500000 
	C1435.999756,607.747314 1435.999756,595.994568 1435.999756,583.881348 
	C1471.657349,583.881348 1506.583130,583.881348 1541.687500,583.881348 
	C1541.687500,574.456055 1541.687500,565.408264 1541.687500,555.810913 
	C1506.332275,555.810913 1471.286743,555.810913 1436.256836,555.810913 
	C1436.256836,536.329529 1436.256836,517.401794 1436.256836,497.924683 
	C1475.553589,497.924683 1514.597778,497.924683 1553.620117,497.924683 
	C1553.620117,488.318939 1553.620117,479.269440 1553.620117,470.261902 
	C1503.986694,470.261902 1454.733398,470.261902 1405.311768,470.261902 
	C1405.311768,537.557068 1405.311768,604.589966 1405.311768,671.637146 
	C1455.662598,671.637146 1505.700439,671.637146 1555.754150,671.637146 
	C1555.754150,662.340881 1555.754150,653.409851 1555.754150,643.937317 
	C1515.800171,643.937317 1476.088623,643.937317 1435.999756,643.937317 
	C1435.999756,635.764099 1435.999756,628.132019 1435.999756,619.500000 
M2056.090332,663.457581 
	C2055.394287,661.975464 2054.677734,660.502747 2054.005615,659.009827 
	C2043.317383,635.266663 2032.671021,611.504456 2021.941406,587.779968 
	C2010.677246,562.873169 1999.328979,538.004333 1988.028198,513.114075 
	C1981.698853,499.173553 1975.451904,485.194794 1968.981201,471.320251 
	C1968.322266,469.907104 1966.411865,468.203888 1965.022705,468.149506 
	C1957.216064,467.843781 1949.391235,468.002136 1941.650146,468.002136 
	C1910.879761,535.935791 1880.223633,603.617432 1849.331543,671.819580 
	C1860.625244,671.819580 1870.927490,671.819580 1881.404053,671.819580 
	C1888.183105,656.768188 1895.116577,641.720459 1901.703003,626.522217 
	C1903.493652,622.390137 1905.614624,620.426819 1910.380127,620.883972 
	C1915.662842,621.390686 1921.031494,620.999878 1926.362793,620.999878 
	C1950.853271,620.999939 1975.344116,620.951477 1999.833740,621.103699 
	C2001.549316,621.114441 2004.214966,622.168701 2004.820312,623.483154 
	C2012.210083,639.528198 2019.297119,655.712891 2026.409058,671.741272 
	C2037.211670,671.741272 2047.975830,671.741272 2059.287109,671.741272 
	C2058.277100,668.914551 2057.415039,666.502197 2056.090332,663.457581 
M1125.930542,477.318268 
	C1121.247559,487.677307 1116.600464,498.052704 1111.874023,508.391815 
	C1102.800781,528.239502 1093.626465,548.041138 1084.596802,567.908508 
	C1072.145630,595.304504 1059.776855,622.737854 1047.401733,650.168335 
	C1044.204102,657.256348 1041.115601,664.393555 1037.761841,671.995911 
	C1048.054443,671.995911 1057.701782,672.087097 1067.342773,671.880554 
	C1068.548218,671.854736 1070.283813,670.514954 1070.821777,669.345886 
	C1077.631348,654.551514 1084.396118,639.732605 1090.825684,624.770935 
	C1091.981201,622.081848 1092.927856,620.924133 1095.953491,620.934570 
	C1126.944946,621.041565 1157.936890,621.040527 1188.928345,620.934937 
	C1191.890259,620.924866 1192.993164,621.917175 1194.145508,624.659424 
	C1200.447144,639.655273 1207.069458,654.517395 1213.716797,669.364929 
	C1214.215820,670.479614 1215.759277,671.848999 1216.840088,671.868896 
	C1227.109253,672.058777 1237.383423,671.982117 1248.231079,671.982117 
	C1239.565674,652.729858 1231.198608,634.062195 1222.766113,615.424011 
	C1211.418945,590.343628 1199.987061,565.301514 1188.655762,540.213928 
	C1178.327881,517.347534 1168.065063,494.451691 1157.834839,471.541443 
	C1156.691528,468.981110 1155.230957,467.765869 1152.209717,467.920715 
	C1146.725586,468.201843 1141.167480,468.454926 1135.732544,467.867157 
	C1130.692993,467.322174 1128.486450,469.680725 1127.087036,473.818054 
	C1126.775269,474.739532 1126.423096,475.647369 1125.930542,477.318268 
M2251.389160,512.098816 
	C2254.652588,504.547760 2261.123535,500.628571 2268.340576,498.100708 
	C2285.896973,491.951263 2302.944336,494.942596 2319.135742,502.782196 
	C2327.486816,506.825684 2335.080078,512.435242 2343.231689,517.470703 
	C2344.844482,515.192322 2346.493408,512.762451 2348.248047,510.411560 
	C2350.110352,507.916107 2352.150879,505.551758 2353.970703,503.027130 
	C2356.046387,500.147186 2359.943359,496.738495 2359.435547,494.317291 
	C2358.839355,491.475586 2354.464111,489.305969 2351.540283,487.093140 
	C2335.606934,475.034607 2317.431641,468.449890 2297.684814,467.231171 
	C2287.403809,466.596649 2276.775635,467.285828 2266.658691,469.225128 
	C2248.162354,472.770599 2233.311279,482.574066 2224.251953,499.572388 
	C2219.166748,509.113495 2218.017578,519.460571 2218.841553,530.362427 
	C2220.047363,546.324036 2226.849854,558.553589 2239.977051,567.545471 
	C2255.572998,578.228210 2273.700195,581.705017 2291.555420,585.998169 
	C2302.661133,588.668457 2313.654785,591.430725 2323.519287,597.713806 
	C2336.013672,605.672302 2336.450439,620.470764 2330.215088,631.100098 
	C2323.365479,642.776733 2311.402344,645.938232 2299.097656,646.851379 
	C2283.832275,647.984253 2268.957520,644.947937 2255.557617,637.587280 
	C2247.312256,633.057983 2240.149902,626.564514 2232.461914,621.007507 
	C2230.562012,619.634155 2228.869873,616.200256 2226.028320,619.536865 
	C2220.305176,626.257141 2214.739746,633.111877 2208.151367,641.067871 
	C2218.432861,648.082703 2228.078369,655.981689 2238.862793,661.751221 
	C2262.456055,674.373535 2287.850830,678.088745 2314.191895,672.907104 
	C2331.389160,669.524170 2346.223389,661.552795 2355.888184,646.421936 
	C2363.396240,634.667236 2366.059570,621.748413 2364.281494,607.488037 
	C2362.771484,595.372925 2357.728516,585.607849 2349.074707,577.771545 
	C2337.952148,567.699646 2323.956787,563.026123 2309.796143,559.002747 
	C2295.558594,554.957520 2281.030518,551.733398 2267.132812,546.747314 
	C2252.346191,541.442322 2244.638916,528.621216 2251.389160,512.098816 
M1788.999756,373.500000 
	C1788.999756,386.250702 1788.999756,399.001434 1788.999756,411.749695 
	C1801.991455,411.749695 1814.253052,411.749695 1826.725220,411.749695 
	C1826.725220,322.478943 1826.725220,233.458572 1826.725220,144.338654 
	C1814.067383,144.338654 1801.687866,144.338654 1788.999756,144.338654 
	C1788.999756,220.617874 1788.999756,296.558929 1788.999756,373.500000 
M1281.000000,516.500793 
	C1281.000000,568.249634 1281.000000,619.998474 1281.000000,671.741455 
	C1291.334839,671.741455 1300.933228,671.741455 1311.087891,671.741455 
	C1311.087891,613.770020 1311.087891,556.054382 1311.087891,497.776733 
	C1333.363647,497.776733 1355.084473,497.776733 1376.730103,497.776733 
	C1376.730103,488.275269 1376.730103,479.342560 1376.730103,470.342224 
	C1323.069214,470.342224 1269.687256,470.342224 1216.411133,470.342224 
	C1216.411133,479.742340 1216.411133,488.794556 1216.411133,498.217957 
	C1238.087280,498.217957 1259.354004,498.217957 1281.000000,498.217957 
	C1281.000000,504.232605 1281.000000,509.867065 1281.000000,516.500793 
M2182.455811,644.000000 
	C2160.044434,644.000000 2137.633301,644.000000 2114.858887,644.000000 
	C2114.858887,585.651917 2114.858887,528.063293 2114.858887,470.322754 
	C2104.770264,470.322754 2095.055420,470.322754 2085.373047,470.322754 
	C2085.373047,537.683472 2085.373047,604.720764 2085.373047,671.744507 
	C2121.005127,671.744507 2156.263916,671.744507 2191.677246,671.744507 
	C2191.677246,662.438049 2191.677246,653.390015 2191.677246,644.000000 
	C2188.723145,644.000000 2186.082275,644.000000 2182.455811,644.000000 
M1822.999756,665.397095 
	C1822.999756,600.348145 1822.999756,535.299133 1822.999756,470.255920 
	C1812.664795,470.255920 1803.069580,470.255920 1793.285645,470.255920 
	C1793.285645,537.535217 1793.285645,604.558411 1793.285645,671.650146 
	C1803.287598,671.650146 1813.000244,671.650146 1822.999756,671.650146 
	C1822.999756,669.656616 1822.999756,668.011536 1822.999756,665.397095 
M2434.083252,668.556152 
	C2441.520508,670.703796 2448.862793,674.132385 2456.417969,674.693420 
	C2467.257080,675.498291 2477.317139,672.049133 2486.482422,665.368042 
	C2501.670410,654.296448 2508.859131,633.786072 2504.526367,615.872131 
	C2499.507324,595.121216 2480.090576,579.198547 2457.406982,579.884583 
	C2438.244873,580.464111 2424.394531,589.434326 2415.869873,605.803406 
	C2404.826904,627.007874 2411.583252,655.267212 2434.083252,668.556152 
z"/>
<path fill="#0E91C8" opacity="1.000000" stroke="none" 
	d="
M231.000412,282.026398 
	C231.000381,278.227203 231.000381,274.923828 231.000381,271.312378 
	C216.920425,271.312378 203.204788,271.312378 188.998795,271.312378 
	C188.998795,273.448517 188.998795,275.402863 188.998810,277.357178 
	C188.999084,339.019073 188.761810,400.682434 189.143784,462.341980 
	C189.258957,480.933472 196.750397,497.085754 208.763748,511.401398 
	C219.512985,524.210571 232.703995,533.102234 248.464218,537.949158 
	C255.703369,540.175415 263.443970,541.667419 270.993561,541.833008 
	C303.919830,542.554626 336.859436,542.666321 369.794189,543.004639 
	C370.591309,543.012817 371.387787,543.081787 372.948608,543.161377 
	C371.614777,544.658630 370.738647,545.745300 369.757751,546.727417 
	C357.627960,558.872253 345.557129,571.078125 333.253906,583.044983 
	C331.596954,584.656677 328.760284,585.843811 326.452667,585.873169 
	C308.457001,586.102356 290.457031,586.020020 272.458466,585.994080 
	C256.046295,585.970398 240.238876,582.517090 225.106613,576.472534 
	C207.750565,569.539673 192.214813,559.498230 179.399719,545.798706 
	C162.116791,527.322876 149.882706,506.060699 146.055527,480.672150 
	C144.931076,473.212738 144.107193,465.625946 144.087570,458.095093 
	C143.930664,397.933472 144.000183,337.771271 144.000336,277.609253 
	C144.000336,275.632111 144.000336,273.654968 144.000336,271.340057 
	C129.644073,271.340057 115.595055,271.340057 101.000366,271.340057 
	C101.000366,273.052521 101.000374,274.666138 101.000374,276.279785 
	C101.000237,339.441559 100.678391,402.605988 101.191437,465.763580 
	C101.350182,485.306335 106.410675,504.216278 114.057571,522.311157 
	C124.152557,546.199036 139.138763,566.640930 158.432236,583.778381 
	C174.222900,597.804382 191.938049,609.029663 212.066544,615.881470 
	C222.194336,619.329041 232.420731,623.017578 242.907608,624.743774 
	C255.688797,626.847595 268.789429,627.020752 281.755524,627.980042 
	C283.695679,628.123535 285.655579,628.000000 288.783478,628.000000 
	C287.261841,629.866394 286.487610,630.998169 285.536530,631.954041 
	C277.543335,639.986816 269.469727,647.940247 261.529968,656.025208 
	C259.012512,658.588684 256.540558,661.285278 254.544266,664.254761 
	C249.675858,671.496216 242.876648,670.337646 235.981308,668.922546 
	C214.494949,664.513428 193.637817,658.182495 174.118073,647.994568 
	C156.495132,638.796692 140.310760,627.627136 125.505539,614.210083 
	C103.054726,593.864319 86.092995,569.714539 73.759834,542.282104 
	C66.398499,525.908447 60.977104,508.764160 59.090900,490.821960 
	C57.575623,476.408142 56.220642,461.900543 56.136391,447.426758 
	C55.803665,390.266449 56.044071,333.102936 55.904537,275.941071 
	C55.894726,271.922211 57.095985,269.217102 59.930412,266.454559 
	C71.982719,254.707764 83.721741,242.639328 95.790070,230.909470 
	C97.443619,229.302307 100.305389,228.120087 102.609322,228.117523 
	C222.099945,227.984344 341.591156,227.837921 461.081085,228.149643 
	C482.611328,228.205795 500.914917,246.949875 500.935028,267.815460 
	C501.062866,400.471741 501.000031,533.128235 501.000000,665.784607 
	C501.000000,667.604980 500.999969,669.425354 500.999969,671.622314 
	C486.387939,671.622314 472.004730,671.622314 457.206116,671.622314 
	C457.206116,601.049377 457.206116,530.467590 457.206116,458.855255 
	C455.433380,460.369110 454.332336,461.189667 453.370087,462.149353 
	C441.452881,474.035553 429.489868,485.877380 417.710419,497.898895 
	C415.409119,500.247437 413.096680,501.069641 409.882385,501.062836 
	C366.219269,500.970398 322.555939,500.994232 278.892639,501.004669 
	C265.849945,501.007782 253.696442,497.616486 244.252792,488.601654 
	C235.805679,480.538147 231.055542,470.001678 231.038254,458.010376 
	C230.953979,399.514435 231.000305,341.018280 231.000412,282.026398 
M287.522095,271.000000 
	C283.764771,271.000000 280.007446,271.000000 276.405762,271.000000 
	C276.405762,333.423584 276.405762,395.123535 276.405762,456.725708 
	C336.727570,456.725708 396.643219,456.725708 456.680908,456.725708 
	C456.680908,394.751282 456.680908,333.051788 456.680908,271.000000 
	C400.413483,271.000000 344.463989,271.000000 287.522095,271.000000 
z"/>
<path fill="#0E91C8" opacity="1.000000" stroke="none" 
	d="
M498.825256,60.009567 
	C514.011108,64.611702 528.956177,68.665657 543.457642,73.939224 
	C561.457153,80.484840 577.774658,90.364876 592.726013,102.326385 
	C600.416626,108.479103 608.119263,114.739456 615.007019,121.746780 
	C628.240906,135.210266 639.483276,150.283508 648.964417,166.669006 
	C661.742432,188.752213 669.606995,212.581009 673.817444,237.581863 
	C675.424927,247.126587 675.903137,256.958588 675.912598,266.660675 
	C676.042419,399.465576 675.999939,532.270630 675.999817,665.075684 
	C675.999817,667.206055 675.999756,669.336487 675.999756,671.724854 
	C661.299438,671.724854 647.035767,671.724854 632.000000,671.724854 
	C632.000000,669.708801 632.000000,667.625488 632.000000,665.542175 
	C632.000000,535.236572 632.128418,404.930817 631.915894,274.625580 
	C631.857727,238.970001 622.601135,205.741196 601.985657,176.262680 
	C588.357178,156.775040 571.699585,140.489197 551.360779,127.668953 
	C530.643311,114.610016 508.384491,106.264023 484.483276,102.180504 
	C475.268127,100.606110 465.772980,100.110023 456.403320,100.089783 
	C381.752899,99.928589 307.101990,99.999901 232.451218,99.999908 
	C230.462784,99.999908 228.474350,99.999908 225.727036,99.999908 
	C226.554764,98.629890 226.930618,97.613640 227.625870,96.915436 
	C240.557709,83.928619 253.485214,70.936539 266.558868,58.093407 
	C267.784912,56.888996 269.982452,56.087994 271.730530,56.085178 
	C334.550323,55.983967 397.371674,55.782764 460.189087,56.181393 
	C472.929535,56.262241 485.655182,58.668358 498.825256,60.009567 
z"/>
<path fill="#0E91C8" opacity="1.000000" stroke="none" 
	d="
M544.000427,483.000000 
	C544.000366,411.178436 544.228271,339.855682 543.845337,268.536163 
	C543.745300,249.910568 536.874939,233.238510 525.124146,218.520950 
	C513.140259,203.511505 497.985168,193.665039 479.512451,188.937881 
	C473.848694,187.488525 467.952271,186.131317 462.160187,186.122070 
	C357.177765,185.954315 252.195038,185.999329 147.212372,185.998978 
	C145.266418,185.998978 143.320465,185.998978 140.210449,185.998978 
	C141.742355,184.125504 142.521042,182.990463 143.476807,182.031998 
	C155.948471,169.524979 168.389816,156.986374 181.011154,144.631790 
	C182.462540,143.211090 184.951752,142.109451 186.961426,142.106766 
	C278.612793,141.983932 370.266602,141.651443 461.914337,142.241104 
	C485.368225,142.392014 507.547546,149.401703 527.725159,162.089386 
	C538.841064,169.079056 548.886902,177.303818 557.447815,187.091827 
	C572.011780,203.743317 581.721863,222.929169 586.110596,244.829346 
	C588.695862,257.729950 589.020630,270.667969 589.017578,283.707916 
	C588.987732,410.853577 588.999573,537.999207 588.999451,665.144897 
	C588.999451,667.265564 588.999390,669.386230 588.999390,671.749390 
	C573.914795,671.749390 559.317932,671.749390 544.000427,671.749390 
	C544.000427,608.987244 544.000427,546.243652 544.000427,483.000000 
z"/>
<path fill="#0E91C8" opacity="1.000000" stroke="none" 
	d="
M2126.000244,295.000000 
	C2126.000244,244.534790 2126.000244,194.569595 2126.000244,144.000122 
	C2128.149414,144.000122 2129.921631,144.000122 2131.693848,144.000122 
	C2163.026367,144.000107 2194.358887,143.967758 2225.691406,144.011414 
	C2246.766357,144.040787 2266.848145,148.614197 2286.187012,156.982132 
	C2304.600098,164.949448 2320.261230,176.753510 2333.130371,191.820633 
	C2346.641113,207.638962 2355.641113,226.092499 2359.962891,246.595932 
	C2363.250488,262.191589 2363.672119,277.864929 2362.176270,293.784058 
	C2360.684326,309.660614 2356.282959,324.569489 2349.513184,338.770966 
	C2339.246582,360.308441 2323.370361,377.119415 2303.330322,389.795685 
	C2290.907715,397.653442 2277.452148,403.430115 2263.072754,407.078278 
	C2248.465088,410.784393 2233.723145,412.178650 2218.691895,412.063965 
	C2189.861084,411.843964 2161.027100,411.999908 2132.194580,411.999908 
	C2130.375244,411.999908 2128.555664,411.999908 2126.000244,411.999908 
	C2126.000244,373.002167 2126.000244,334.251068 2126.000244,295.000000 
M2322.997803,261.652954 
	C2321.695557,256.629242 2320.483398,251.580170 2319.075684,246.586197 
	C2312.449707,223.080948 2297.962158,205.728745 2277.062500,193.575562 
	C2259.195557,183.185699 2239.583740,179.304428 2219.171875,179.042770 
	C2202.686035,178.831436 2186.195312,178.999908 2169.706787,178.999908 
	C2167.934082,178.999908 2166.161621,178.999908 2164.317383,178.999908 
	C2164.317383,245.276596 2164.317383,310.960419 2164.317383,376.017395 
	C2186.362061,376.017395 2208.086914,376.205292 2229.806396,375.956818 
	C2246.616943,375.764526 2262.153320,370.663055 2276.835205,362.621338 
	C2293.297119,353.604614 2305.603027,340.558624 2313.944336,323.918701 
	C2323.661133,304.534027 2325.935791,283.886353 2322.997803,261.652954 
z"/>
<path fill="#0E91C8" opacity="1.000000" stroke="none" 
	d="
M1956.000000,144.000000 
	C1997.458984,144.000000 2038.418091,144.000000 2079.687988,144.000000 
	C2079.687988,155.744980 2079.687988,167.126022 2079.687988,178.882645 
	C2026.913574,178.882645 1974.323242,178.882645 1921.367188,178.882645 
	C1921.367188,205.631866 1921.367188,232.010498 1921.367188,258.942963 
	C1968.421265,258.942963 2015.465332,258.942963 2062.752686,258.942963 
	C2062.752686,271.087860 2062.752686,282.683502 2062.752686,294.840210 
	C2015.673340,294.840210 1968.630371,294.840210 1921.295166,294.840210 
	C1921.295166,322.324341 1921.295166,349.251984 1921.295166,376.732544 
	C1974.541382,376.732544 2027.917236,376.732544 2081.645020,376.732544 
	C2081.645020,388.660309 2081.645020,400.041931 2081.645020,411.713196 
	C2015.662231,411.713196 1949.742065,411.713196 1883.410889,411.713196 
	C1883.410889,322.798035 1883.410889,233.763855 1883.410889,144.000000 
	C1907.336548,144.000000 1931.418213,144.000000 1956.000000,144.000000 
z"/>
<path fill="#0E91C8" opacity="1.000000" stroke="none" 
	d="
M883.287476,234.322021 
	C893.721802,211.087784 903.916199,188.162125 914.183289,165.269089 
	C917.383118,158.134308 920.696655,151.046432 924.179688,144.047333 
	C924.677856,143.046295 926.421814,142.112259 927.604919,142.092529 
	C937.102173,141.934189 946.605957,141.892914 956.099915,142.129517 
	C957.414368,142.162277 959.307068,143.630905 959.884949,144.908447 
	C969.741882,166.699127 979.403442,188.577988 989.177551,210.406342 
	C992.637146,218.132507 996.323547,225.756760 999.834290,233.460419 
	C1010.239868,256.293427 1020.663330,279.118561 1030.978882,301.992249 
	C1042.547729,327.644897 1053.996582,353.351746 1065.517822,379.025909 
	C1070.192871,389.444183 1074.926270,399.836273 1079.606445,410.252289 
	C1079.788208,410.656860 1079.691772,411.186432 1079.748901,411.995544 
	C1066.976318,411.995544 1054.329102,412.065582 1041.685425,411.883179 
	C1040.469849,411.865662 1038.683838,410.543640 1038.163208,409.379608 
	C1031.337158,394.119812 1024.706787,378.772552 1017.992859,363.462433 
	C1015.180969,357.050171 1012.287720,350.673523 1009.366943,344.136414 
	C964.139099,344.136414 918.829468,344.136414 872.968140,344.136414 
	C865.652832,360.873322 858.312988,377.719269 850.910889,394.537750 
	C849.927063,396.773132 848.019653,398.752472 847.577515,401.050018 
	C845.570374,411.480347 838.773560,412.954224 829.591736,412.158356 
	C821.030151,411.416229 812.353577,411.999756 803.069702,411.999756 
	C807.411194,402.269104 811.477173,393.024811 815.649841,383.828857 
	C827.574646,357.548248 839.570557,331.299866 851.481812,305.013062 
	C857.187134,292.421967 862.746399,279.764801 868.404663,267.152283 
	C873.270874,256.305084 878.183533,245.478729 883.287476,234.322021 
M932.931824,210.329590 
	C930.431213,215.969727 927.969177,221.627335 925.423218,227.246918 
	C915.538330,249.065231 905.603088,270.860748 895.742493,292.690002 
	C893.379944,297.920074 891.233093,303.247498 888.878357,308.785767 
	C924.118286,308.785767 958.697083,308.785767 993.748474,308.785767 
	C985.036926,288.877045 976.581787,269.275177 967.893494,249.777237 
	C959.231873,230.339127 950.336609,211.005142 941.399353,191.307129 
	C938.574158,197.517349 935.832031,203.544785 932.931824,210.329590 
z"/>
<path fill="#0E91C8" opacity="1.000000" stroke="none" 
	d="
M1298.238281,285.267517 
	C1291.531494,291.256073 1285.650879,297.862000 1278.503662,302.527496 
	C1263.887085,312.068512 1247.517578,317.511292 1230.048828,318.936798 
	C1220.817993,319.690063 1211.526001,319.869202 1202.258423,319.956390 
	C1185.769653,320.111603 1169.278320,320.000000 1152.223633,320.000000 
	C1152.223633,350.569000 1152.223633,380.951965 1152.223633,411.665466 
	C1139.281616,411.665466 1126.901367,411.665466 1114.259766,411.665466 
	C1114.259766,322.605194 1114.259766,233.682312 1114.259766,144.000092 
	C1115.808350,144.000092 1117.391968,144.000107 1118.975586,144.000092 
	C1155.637207,143.999878 1192.303345,143.670593 1228.957764,144.182999 
	C1241.312988,144.355713 1253.401123,147.695679 1264.927856,152.458572 
	C1284.876465,160.701492 1300.442139,173.787857 1309.299927,193.815765 
	C1316.134888,209.269760 1318.335083,225.400360 1316.198486,242.336182 
	C1314.633545,254.741989 1311.163696,266.252411 1304.582764,276.813660 
	C1302.789062,279.692169 1300.534424,282.283478 1298.238281,285.267517 
M1245.175171,184.071915 
	C1232.987183,180.532913 1220.555420,178.895615 1207.857422,178.974319 
	C1191.036011,179.078583 1174.213501,179.000061 1157.391479,179.000076 
	C1155.647949,179.000076 1153.904297,179.000076 1152.260132,179.000076 
	C1152.260132,214.723892 1152.260132,249.639114 1152.260132,285.000031 
	C1154.320312,285.000031 1156.112061,285.000031 1157.903931,285.000031 
	C1177.390869,285.000031 1196.880371,285.198151 1216.363770,284.934601 
	C1230.818604,284.739075 1244.047485,280.732758 1256.675171,273.108398 
	C1280.419434,258.772034 1284.702759,225.179581 1270.901855,203.494720 
	C1264.974121,194.180771 1256.144775,188.276459 1245.175171,184.071915 
z"/>
<path fill="#0E91C8" opacity="1.000000" stroke="none" 
	d="
M1390.984253,411.834015 
	C1378.856934,411.834015 1366.729736,411.834015 1354.302490,411.834015 
	C1354.302490,322.579895 1354.302490,233.545395 1354.302490,144.000107 
	C1356.256348,144.000107 1358.040894,144.000107 1359.825439,144.000107 
	C1393.984009,144.000107 1428.142578,143.963623 1462.301147,144.016830 
	C1477.365845,144.040283 1491.832031,147.132507 1505.731323,152.938004 
	C1531.200317,163.576019 1547.996216,181.828369 1554.430298,208.928741 
	C1559.694458,231.100800 1557.683838,252.750397 1546.934570,272.882812 
	C1539.703247,286.426239 1528.818726,296.875031 1515.178223,304.472748 
	C1495.170166,315.617188 1473.826294,320.436676 1451.028809,320.065460 
	C1431.705322,319.750793 1412.372437,320.005890 1392.364258,320.377014 
	C1391.456421,323.038849 1391.033813,325.332214 1391.029663,327.626343 
	C1390.978882,355.695496 1390.989502,383.764771 1390.984253,411.834015 
M1391.679443,179.752136 
	C1391.453979,181.379822 1391.033691,183.007263 1391.031616,184.635223 
	C1390.992554,216.153290 1390.982666,247.671448 1391.049316,279.189423 
	C1391.053345,281.108063 1391.743408,283.025299 1393.036011,284.990051 
	C1413.689575,284.993378 1434.343384,285.055237 1454.996582,284.979126 
	C1468.449463,284.929565 1481.271118,282.103455 1493.070190,275.433197 
	C1502.684937,269.997803 1510.123657,262.689972 1514.370117,252.128143 
	C1517.994263,243.114029 1519.309814,234.174438 1518.143066,224.457245 
	C1516.524292,210.976273 1510.698486,200.133514 1500.008789,192.064056 
	C1487.060303,182.289551 1471.636719,179.653107 1456.067627,179.170044 
	C1434.769287,178.509201 1413.434082,179.037750 1391.679443,179.752136 
z"/>
<path fill="#0E91C8" opacity="1.000000" stroke="none" 
	d="
M848.000366,554.000000 
	C848.000366,593.458435 848.000366,632.416870 848.000366,671.687256 
	C837.924744,671.687256 828.210327,671.687256 818.247375,671.687256 
	C818.247375,604.585571 818.247375,537.667297 818.247375,470.036377 
	C827.644409,470.036377 837.065735,469.946228 846.479736,470.166534 
	C847.495605,470.190277 848.671143,471.880402 849.433228,473.023773 
	C870.988098,505.362091 892.499084,537.729675 914.020386,570.090393 
	C914.377930,570.628052 914.774475,571.139771 915.377380,571.974426 
	C933.030518,545.447327 950.520386,519.141968 968.039551,492.855988 
	C972.575195,486.050537 977.139709,479.261963 981.847961,472.576172 
	C982.653503,471.432281 984.235168,470.147766 985.487854,470.116669 
	C994.116028,469.902435 1002.752075,470.003967 1011.690796,470.003967 
	C1011.690796,537.407959 1011.690796,604.444092 1011.690796,671.740356 
	C1001.936340,671.740356 992.339417,671.740356 982.131348,671.740356 
	C982.131348,623.427917 982.131348,575.099670 982.131348,526.771423 
	C981.782288,526.670654 981.433228,526.569946 981.084229,526.469177 
	C973.785339,537.170593 966.476013,547.864868 959.189941,558.574890 
	C945.999329,577.964294 932.851074,597.382446 919.614136,616.740112 
	C917.207825,620.259033 912.551025,620.009094 910.080322,616.377441 
	C898.066711,598.719482 886.087280,581.038330 874.081543,563.375000 
	C865.753906,551.123169 857.403137,538.887207 848.000366,526.671021 
	C848.000366,535.614014 848.000366,544.557007 848.000366,554.000000 
z"/>
<path fill="#0E91C8" opacity="1.000000" stroke="none" 
	d="
M1592.004395,470.166718 
	C1624.984741,470.112030 1657.981445,469.418518 1690.938477,470.269287 
	C1707.682739,470.701538 1723.343140,476.930664 1735.789307,488.563721 
	C1746.496216,498.571167 1752.240845,511.261810 1753.146973,526.313538 
	C1754.053345,541.366211 1751.455688,555.057556 1742.327148,567.355225 
	C1734.407104,578.024658 1723.825317,584.686401 1711.516479,588.990295 
	C1709.212891,589.795776 1706.889038,590.543518 1704.307983,591.407043 
	C1724.201782,617.935669 1744.086182,644.451477 1764.310059,671.420227 
	C1762.905273,671.655273 1761.878296,671.972961 1760.850220,671.976624 
	C1750.355469,672.013855 1739.859253,672.081970 1729.367432,671.902344 
	C1727.973511,671.878479 1726.142944,670.868530 1725.288452,669.733032 
	C1709.137695,648.269287 1692.878296,626.879944 1677.196411,605.075989 
	C1673.039551,599.296509 1669.011719,596.404358 1661.577026,596.805847 
	C1648.644165,597.504089 1635.646240,597.000000 1622.126099,597.000000 
	C1622.126099,622.015198 1622.126099,646.728088 1622.126099,671.692749 
	C1611.488037,671.692749 1601.397827,671.692749 1591.407227,670.906128 
	C1591.671265,667.644043 1591.978149,665.168518 1591.979248,662.692932 
	C1592.006958,598.517517 1592.002930,534.342102 1592.004395,470.166718 
M1720.937622,520.871277 
	C1717.214478,511.609283 1710.387207,505.193146 1701.141602,502.275299 
	C1693.756348,499.944519 1685.851562,498.456635 1678.121582,498.184753 
	C1661.163086,497.588257 1644.168945,497.993622 1627.189453,498.010223 
	C1625.580933,498.011780 1623.972656,498.157104 1622.340942,498.236847 
	C1622.340942,521.967834 1622.340942,545.331055 1622.340942,568.609558 
	C1622.990723,568.782410 1623.301758,568.937012 1623.612915,568.937500 
	C1640.258789,568.966553 1656.905640,569.088684 1673.550293,568.958740 
	C1682.897705,568.885681 1691.972534,567.533936 1700.893188,564.148682 
	C1718.762085,557.367859 1727.061401,538.050049 1720.937622,520.871277 
z"/>
<path fill="#0E91C8" opacity="1.000000" stroke="none" 
	d="
M1435.999756,620.000000 
	C1435.999756,628.132019 1435.999756,635.764099 1435.999756,643.937317 
	C1476.088623,643.937317 1515.800171,643.937317 1555.754150,643.937317 
	C1555.754150,653.409851 1555.754150,662.340881 1555.754150,671.637146 
	C1505.700439,671.637146 1455.662598,671.637146 1405.311768,671.637146 
	C1405.311768,604.589966 1405.311768,537.557068 1405.311768,470.261902 
	C1454.733398,470.261902 1503.986694,470.261902 1553.620117,470.261902 
	C1553.620117,479.269440 1553.620117,488.318939 1553.620117,497.924683 
	C1514.597778,497.924683 1475.553589,497.924683 1436.256836,497.924683 
	C1436.256836,517.401794 1436.256836,536.329529 1436.256836,555.810913 
	C1471.286743,555.810913 1506.332275,555.810913 1541.687500,555.810913 
	C1541.687500,565.408264 1541.687500,574.456055 1541.687500,583.881348 
	C1506.583130,583.881348 1471.657349,583.881348 1435.999756,583.881348 
	C1435.999756,595.994568 1435.999756,607.747314 1435.999756,620.000000 
z"/>
<path fill="#0E91C8" opacity="1.000000" stroke="none" 
	d="
M2056.321777,663.773682 
	C2057.415039,666.502197 2058.277100,668.914551 2059.287109,671.741272 
	C2047.975830,671.741272 2037.211670,671.741272 2026.409058,671.741272 
	C2019.297119,655.712891 2012.210083,639.528198 2004.820312,623.483154 
	C2004.214966,622.168701 2001.549316,621.114441 1999.833740,621.103699 
	C1975.344116,620.951477 1950.853271,620.999939 1926.362793,620.999878 
	C1921.031494,620.999878 1915.662842,621.390686 1910.380127,620.883972 
	C1905.614624,620.426819 1903.493652,622.390137 1901.703003,626.522217 
	C1895.116577,641.720459 1888.183105,656.768188 1881.404053,671.819580 
	C1870.927490,671.819580 1860.625244,671.819580 1849.331543,671.819580 
	C1880.223633,603.617432 1910.879761,535.935791 1941.650146,468.002136 
	C1949.391235,468.002136 1957.216064,467.843781 1965.022705,468.149506 
	C1966.411865,468.203888 1968.322266,469.907104 1968.981201,471.320251 
	C1975.451904,485.194794 1981.698853,499.173553 1988.028198,513.114075 
	C1999.328979,538.004333 2010.677246,562.873169 2021.941406,587.779968 
	C2032.671021,611.504456 2043.317383,635.266663 2054.005615,659.009827 
	C2054.677734,660.502747 2055.394287,661.975464 2056.321777,663.773682 
M1972.918945,550.582764 
	C1966.779541,536.972412 1960.640015,523.362061 1954.149902,508.974396 
	C1941.322876,537.661499 1929.072632,565.058594 1916.643066,592.856628 
	C1942.014648,592.856628 1966.620483,592.856628 1991.772461,592.856628 
	C1985.464844,578.851013 1979.269775,565.095459 1972.918945,550.582764 
z"/>
<path fill="#0E91C8" opacity="1.000000" stroke="none" 
	d="
M1126.010010,476.939880 
	C1126.423096,475.647369 1126.775269,474.739532 1127.087036,473.818054 
	C1128.486450,469.680725 1130.692993,467.322174 1135.732544,467.867157 
	C1141.167480,468.454926 1146.725586,468.201843 1152.209717,467.920715 
	C1155.230957,467.765869 1156.691528,468.981110 1157.834839,471.541443 
	C1168.065063,494.451691 1178.327881,517.347534 1188.655762,540.213928 
	C1199.987061,565.301514 1211.418945,590.343628 1222.766113,615.424011 
	C1231.198608,634.062195 1239.565674,652.729858 1248.231079,671.982117 
	C1237.383423,671.982117 1227.109253,672.058777 1216.840088,671.868896 
	C1215.759277,671.848999 1214.215820,670.479614 1213.716797,669.364929 
	C1207.069458,654.517395 1200.447144,639.655273 1194.145508,624.659424 
	C1192.993164,621.917175 1191.890259,620.924866 1188.928345,620.934937 
	C1157.936890,621.040527 1126.944946,621.041565 1095.953491,620.934570 
	C1092.927856,620.924133 1091.981201,622.081848 1090.825684,624.770935 
	C1084.396118,639.732605 1077.631348,654.551514 1070.821777,669.345886 
	C1070.283813,670.514954 1068.548218,671.854736 1067.342773,671.880554 
	C1057.701782,672.087097 1048.054443,671.995911 1037.761841,671.995911 
	C1041.115601,664.393555 1044.204102,657.256348 1047.401733,650.168335 
	C1059.776855,622.737854 1072.145630,595.304504 1084.596802,567.908508 
	C1093.626465,548.041138 1102.800781,528.239502 1111.874023,508.391815 
	C1116.600464,498.052704 1121.247559,487.677307 1126.010010,476.939880 
M1132.001343,532.510620 
	C1123.044678,552.516235 1114.088013,572.521912 1105.013306,592.791260 
	C1130.402588,592.791260 1155.015381,592.791260 1180.042847,592.791260 
	C1167.564941,564.770752 1155.234009,537.080383 1142.746826,509.039276 
	C1138.998047,517.017578 1135.538940,524.379028 1132.001343,532.510620 
z"/>
<path fill="#0E91C8" opacity="1.000000" stroke="none" 
	d="
M2251.214844,512.450806 
	C2244.638916,528.621216 2252.346191,541.442322 2267.132812,546.747314 
	C2281.030518,551.733398 2295.558594,554.957520 2309.796143,559.002747 
	C2323.956787,563.026123 2337.952148,567.699646 2349.074707,577.771545 
	C2357.728516,585.607849 2362.771484,595.372925 2364.281494,607.488037 
	C2366.059570,621.748413 2363.396240,634.667236 2355.888184,646.421936 
	C2346.223389,661.552795 2331.389160,669.524170 2314.191895,672.907104 
	C2287.850830,678.088745 2262.456055,674.373535 2238.862793,661.751221 
	C2228.078369,655.981689 2218.432861,648.082703 2208.151367,641.067871 
	C2214.739746,633.111877 2220.305176,626.257141 2226.028320,619.536865 
	C2228.869873,616.200256 2230.562012,619.634155 2232.461914,621.007507 
	C2240.149902,626.564514 2247.312256,633.057983 2255.557617,637.587280 
	C2268.957520,644.947937 2283.832275,647.984253 2299.097656,646.851379 
	C2311.402344,645.938232 2323.365479,642.776733 2330.215088,631.100098 
	C2336.450439,620.470764 2336.013672,605.672302 2323.519287,597.713806 
	C2313.654785,591.430725 2302.661133,588.668457 2291.555420,585.998169 
	C2273.700195,581.705017 2255.572998,578.228210 2239.977051,567.545471 
	C2226.849854,558.553589 2220.047363,546.324036 2218.841553,530.362427 
	C2218.017578,519.460571 2219.166748,509.113495 2224.251953,499.572388 
	C2233.311279,482.574066 2248.162354,472.770599 2266.658691,469.225128 
	C2276.775635,467.285828 2287.403809,466.596649 2297.684814,467.231171 
	C2317.431641,468.449890 2335.606934,475.034607 2351.540283,487.093140 
	C2354.464111,489.305969 2358.839355,491.475586 2359.435547,494.317291 
	C2359.943359,496.738495 2356.046387,500.147186 2353.970703,503.027130 
	C2352.150879,505.551758 2350.110352,507.916107 2348.248047,510.411560 
	C2346.493408,512.762451 2344.844482,515.192322 2343.231689,517.470703 
	C2335.080078,512.435242 2327.486816,506.825684 2319.135742,502.782196 
	C2302.944336,494.942596 2285.896973,491.951263 2268.340576,498.100708 
	C2261.123535,500.628571 2254.652588,504.547760 2251.214844,512.450806 
z"/>
<path fill="#0E91C8" opacity="1.000000" stroke="none" 
	d="
M1593.015747,144.165924 
	C1605.141357,144.165924 1617.266968,144.165924 1629.922363,144.165924 
	C1629.922363,221.741058 1629.922363,299.103271 1629.922363,376.834351 
	C1669.372681,376.834351 1708.294678,376.834351 1747.607910,376.834351 
	C1747.607910,388.576691 1747.607910,399.958435 1747.607910,411.970367 
	C1696.426636,411.970367 1645.184448,411.970367 1593.476074,411.444153 
	C1593.011719,322.000580 1593.013672,233.083252 1593.015747,144.165924 
z"/>
<path fill="#0E91C8" opacity="1.000000" stroke="none" 
	d="
M1788.999756,373.000000 
	C1788.999756,296.558929 1788.999756,220.617874 1788.999756,144.338654 
	C1801.687866,144.338654 1814.067383,144.338654 1826.725220,144.338654 
	C1826.725220,233.458572 1826.725220,322.478943 1826.725220,411.749695 
	C1814.253052,411.749695 1801.991455,411.749695 1788.999756,411.749695 
	C1788.999756,399.001434 1788.999756,386.250702 1788.999756,373.000000 
z"/>
<path fill="#0E91C8" opacity="1.000000" stroke="none" 
	d="
M1281.000000,516.001160 
	C1281.000000,509.867065 1281.000000,504.232605 1281.000000,498.217957 
	C1259.354004,498.217957 1238.087280,498.217957 1216.411133,498.217957 
	C1216.411133,488.794556 1216.411133,479.742340 1216.411133,470.342224 
	C1269.687256,470.342224 1323.069214,470.342224 1376.730103,470.342224 
	C1376.730103,479.342560 1376.730103,488.275269 1376.730103,497.776733 
	C1355.084473,497.776733 1333.363647,497.776733 1311.087891,497.776733 
	C1311.087891,556.054382 1311.087891,613.770020 1311.087891,671.741455 
	C1300.933228,671.741455 1291.334839,671.741455 1281.000000,671.741455 
	C1281.000000,619.998474 1281.000000,568.249634 1281.000000,516.001160 
z"/>
<path fill="#0E91C8" opacity="1.000000" stroke="none" 
	d="
M2182.948730,644.000000 
	C2186.082275,644.000000 2188.723145,644.000000 2191.677246,644.000000 
	C2191.677246,653.390015 2191.677246,662.438049 2191.677246,671.744507 
	C2156.263916,671.744507 2121.005127,671.744507 2085.373047,671.744507 
	C2085.373047,604.720764 2085.373047,537.683472 2085.373047,470.322754 
	C2095.055420,470.322754 2104.770264,470.322754 2114.858887,470.322754 
	C2114.858887,528.063293 2114.858887,585.651917 2114.858887,644.000000 
	C2137.633301,644.000000 2160.044434,644.000000 2182.948730,644.000000 
z"/>
<path fill="#0E91C8" opacity="1.000000" stroke="none" 
	d="
M1822.999756,665.881836 
	C1822.999756,668.011536 1822.999756,669.656616 1822.999756,671.650146 
	C1813.000244,671.650146 1803.287598,671.650146 1793.285645,671.650146 
	C1793.285645,604.558411 1793.285645,537.535217 1793.285645,470.255920 
	C1803.069580,470.255920 1812.664795,470.255920 1822.999756,470.255920 
	C1822.999756,535.299133 1822.999756,600.348145 1822.999756,665.881836 
z"/>
<path fill="#0E92C9" opacity="1.000000" stroke="none" 
	d="
M2433.815430,668.294067 
	C2411.583252,655.267212 2404.826904,627.007874 2415.869873,605.803406 
	C2424.394531,589.434326 2438.244873,580.464111 2457.406982,579.884583 
	C2480.090576,579.198547 2499.507324,595.121216 2504.526367,615.872131 
	C2508.859131,633.786072 2501.670410,654.296448 2486.482422,665.368042 
	C2477.317139,672.049133 2467.257080,675.498291 2456.417969,674.693420 
	C2448.862793,674.132385 2441.520508,670.703796 2433.815430,668.294067 
M2492.564697,602.084473 
	C2490.686523,600.197327 2488.822510,598.295776 2486.927979,596.425171 
	C2470.013672,579.724060 2440.934082,582.039490 2425.458984,600.729797 
	C2410.582764,618.696655 2414.360107,648.458191 2433.004150,661.528503 
	C2450.267822,673.630981 2470.887939,672.715515 2486.608154,658.730652 
	C2502.297119,644.773438 2505.045654,620.282654 2492.564697,602.084473 
z"/>
<path fill="#0080BF" opacity="1.000000" stroke="none" 
	d="
M1592.623779,144.337463 
	C1593.013672,233.083252 1593.011719,322.000580 1593.012695,411.375977 
	C1592.677368,410.679291 1592.043335,409.524628 1592.042725,408.369629 
	C1591.998535,321.075348 1592.003906,233.781052 1592.015625,146.486755 
	C1592.015747,145.827484 1592.156738,145.168259 1592.623779,144.337463 
z"/>
<path fill="#00AAAA" opacity="1.000000" stroke="none" 
	d="
M1591.610840,470.335693 
	C1592.002930,534.342102 1592.006958,598.517517 1591.979248,662.692932 
	C1591.978149,665.168518 1591.671265,667.644043 1591.325439,670.469482 
	C1591.095947,653.169373 1591.013794,635.519287 1591.006592,617.869202 
	C1590.987183,570.739746 1590.997314,523.610229 1591.009155,476.480774 
	C1591.009644,474.488708 1591.144897,472.496674 1591.610840,470.335693 
z"/>
<path fill="#0080BF" opacity="1.000000" stroke="none" 
	d="
M1391.376099,411.662476 
	C1390.989502,383.764771 1390.978882,355.695496 1391.029663,327.626343 
	C1391.033813,325.332214 1391.456421,323.038849 1391.903564,320.397797 
	C1392.081787,348.538452 1392.045410,377.026428 1391.990356,405.514404 
	C1391.986572,407.506714 1391.845215,409.498749 1391.376099,411.662476 
z"/>
<path fill="#000000" opacity="1.000000" stroke="none" 
	d="
M288.018311,271.000000 
	C344.463989,271.000000 400.413483,271.000000 456.680908,271.000000 
	C456.680908,333.051788 456.680908,394.751282 456.680908,456.725708 
	C396.643219,456.725708 336.727570,456.725708 276.405762,456.725708 
	C276.405762,395.123535 276.405762,333.423584 276.405762,271.000000 
	C280.007446,271.000000 283.764771,271.000000 288.018311,271.000000 
z"/>
<path fill="#000000" opacity="1.000000" stroke="none" 
	d="
M2322.999023,262.101929 
	C2325.935791,283.886353 2323.661133,304.534027 2313.944336,323.918701 
	C2305.603027,340.558624 2293.297119,353.604614 2276.835205,362.621338 
	C2262.153320,370.663055 2246.616943,375.764526 2229.806396,375.956818 
	C2208.086914,376.205292 2186.362061,376.017395 2164.317383,376.017395 
	C2164.317383,310.960419 2164.317383,245.276596 2164.317383,178.999908 
	C2166.161621,178.999908 2167.934082,178.999908 2169.706787,178.999908 
	C2186.195312,178.999908 2202.686035,178.831436 2219.171875,179.042770 
	C2239.583740,179.304428 2259.195557,183.185699 2277.062500,193.575562 
	C2297.962158,205.728745 2312.449707,223.080948 2319.075684,246.586197 
	C2320.483398,251.580170 2321.695557,256.629242 2322.999023,262.101929 
z"/>
<path fill="#000000" opacity="1.000000" stroke="none" 
	d="
M933.010864,209.950912 
	C935.832031,203.544785 938.574158,197.517349 941.399353,191.307129 
	C950.336609,211.005142 959.231873,230.339127 967.893494,249.777237 
	C976.581787,269.275177 985.036926,288.877045 993.748474,308.785767 
	C958.697083,308.785767 924.118286,308.785767 888.878357,308.785767 
	C891.233093,303.247498 893.379944,297.920074 895.742493,292.690002 
	C905.603088,270.860748 915.538330,249.065231 925.423218,227.246918 
	C927.969177,221.627335 930.431213,215.969727 933.010864,209.950912 
z"/>
<path fill="#000000" opacity="1.000000" stroke="none" 
	d="
M1245.539062,184.243805 
	C1256.144775,188.276459 1264.974121,194.180771 1270.901855,203.494720 
	C1284.702759,225.179581 1280.419434,258.772034 1256.675171,273.108398 
	C1244.047485,280.732758 1230.818604,284.739075 1216.363770,284.934601 
	C1196.880371,285.198151 1177.390869,285.000031 1157.903931,285.000031 
	C1156.112061,285.000031 1154.320312,285.000031 1152.260132,285.000031 
	C1152.260132,249.639114 1152.260132,214.723892 1152.260132,179.000076 
	C1153.904297,179.000076 1155.647949,179.000076 1157.391479,179.000076 
	C1174.213501,179.000061 1191.036011,179.078583 1207.857422,178.974319 
	C1220.555420,178.895615 1232.987183,180.532913 1245.539062,184.243805 
z"/>
<path fill="#000000" opacity="1.000000" stroke="none" 
	d="
M1392.114624,179.056488 
	C1413.434082,179.037750 1434.769287,178.509201 1456.067627,179.170044 
	C1471.636719,179.653107 1487.060303,182.289551 1500.008789,192.064056 
	C1510.698486,200.133514 1516.524292,210.976273 1518.143066,224.457245 
	C1519.309814,234.174438 1517.994263,243.114029 1514.370117,252.128143 
	C1510.123657,262.689972 1502.684937,269.997803 1493.070190,275.433197 
	C1481.271118,282.103455 1468.449463,284.929565 1454.996582,284.979126 
	C1434.343384,285.055237 1413.689575,284.993378 1392.529297,284.504211 
	C1392.053223,249.031082 1392.083862,214.043777 1392.114624,179.056488 
z"/>
<path fill="#0080BF" opacity="1.000000" stroke="none" 
	d="
M1391.896973,179.404312 
	C1392.083862,214.043777 1392.053223,249.031082 1392.068359,284.480774 
	C1391.743408,283.025299 1391.053345,281.108063 1391.049316,279.189423 
	C1390.982666,247.671448 1390.992554,216.153290 1391.031616,184.635223 
	C1391.033691,183.007263 1391.453979,181.379822 1391.896973,179.404312 
z"/>
<path fill="#000000" opacity="1.000000" stroke="none" 
	d="
M1720.977051,521.273438 
	C1727.061401,538.050049 1718.762085,557.367859 1700.893188,564.148682 
	C1691.972534,567.533936 1682.897705,568.885681 1673.550293,568.958740 
	C1656.905640,569.088684 1640.258789,568.966553 1623.612915,568.937500 
	C1623.301758,568.937012 1622.990723,568.782410 1622.340942,568.609558 
	C1622.340942,545.331055 1622.340942,521.967834 1622.340942,498.236847 
	C1623.972656,498.157104 1625.580933,498.011780 1627.189453,498.010223 
	C1644.168945,497.993622 1661.163086,497.588257 1678.121582,498.184753 
	C1685.851562,498.456635 1693.756348,499.944519 1701.141602,502.275299 
	C1710.387207,505.193146 1717.214478,511.609283 1720.977051,521.273438 
z"/>
<path fill="#000000" opacity="1.000000" stroke="none" 
	d="
M1972.996826,550.961304 
	C1979.269775,565.095459 1985.464844,578.851013 1991.772461,592.856628 
	C1966.620483,592.856628 1942.014648,592.856628 1916.643066,592.856628 
	C1929.072632,565.058594 1941.322876,537.661499 1954.149902,508.974396 
	C1960.640015,523.362061 1966.779541,536.972412 1972.996826,550.961304 
z"/>
<path fill="#000000" opacity="1.000000" stroke="none" 
	d="
M1132.040649,532.125549 
	C1135.538940,524.379028 1138.998047,517.017578 1142.746826,509.039276 
	C1155.234009,537.080383 1167.564941,564.770752 1180.042847,592.791260 
	C1155.015381,592.791260 1130.402588,592.791260 1105.013306,592.791260 
	C1114.088013,572.521912 1123.044678,552.516235 1132.040649,532.125549 
z"/>
<path fill="#000000" opacity="1.000000" stroke="none" 
	d="
M2492.752930,602.397339 
	C2505.045654,620.282654 2502.297119,644.773438 2486.608154,658.730652 
	C2470.887939,672.715515 2450.267822,673.630981 2433.004150,661.528503 
	C2414.360107,648.458191 2410.582764,618.696655 2425.458984,600.729797 
	C2440.934082,582.039490 2470.013672,579.724060 2486.927979,596.425171 
	C2488.822510,598.295776 2490.686523,600.197327 2492.752930,602.397339 
M2474.390137,604.906311 
	C2463.165039,598.416565 2451.043213,601.889648 2439.244629,600.972229 
	C2439.244629,617.671753 2439.244629,633.598694 2439.244629,649.694092 
	C2441.875244,649.694092 2444.253906,649.694092 2447.179199,649.694092 
	C2447.179199,643.671875 2447.179199,637.940186 2447.179199,631.999695 
	C2449.882812,631.999695 2452.052246,631.833252 2454.182861,632.049744 
	C2456.053711,632.239746 2458.504150,632.260071 2459.605225,633.405823 
	C2462.404785,636.319275 2465.016602,639.591553 2466.932861,643.136719 
	C2470.555176,649.838196 2475.843506,651.355896 2482.718506,649.534058 
	C2477.904785,643.458252 2473.157959,637.466919 2468.415283,631.480896 
	C2481.743164,624.049988 2484.066406,614.825684 2474.390137,604.906311 
z"/>
<path fill="#0E91C8" opacity="1.000000" stroke="none" 
	d="
M2474.666504,605.164734 
	C2484.066406,614.825684 2481.743164,624.049988 2468.415283,631.480896 
	C2473.157959,637.466919 2477.904785,643.458252 2482.718506,649.534058 
	C2475.843506,651.355896 2470.555176,649.838196 2466.932861,643.136719 
	C2465.016602,639.591553 2462.404785,636.319275 2459.605225,633.405823 
	C2458.504150,632.260071 2456.053711,632.239746 2454.182861,632.049744 
	C2452.052246,631.833252 2449.882812,631.999695 2447.179199,631.999695 
	C2447.179199,637.940186 2447.179199,643.671875 2447.179199,649.694092 
	C2444.253906,649.694092 2441.875244,649.694092 2439.244629,649.694092 
	C2439.244629,633.598694 2439.244629,617.671753 2439.244629,600.972229 
	C2451.043213,601.889648 2463.165039,598.416565 2474.666504,605.164734 
M2469.501953,611.995483 
	C2462.640625,606.141541 2454.727783,610.309937 2447.380371,608.849670 
	C2447.380371,614.712708 2447.380371,619.751953 2447.380371,624.994263 
	C2452.394775,624.994263 2457.045410,625.230408 2461.663330,624.942932 
	C2470.069092,624.419739 2473.074463,619.811462 2469.501953,611.995483 
z"/>
<path fill="#000000" opacity="1.000000" stroke="none" 
	d="
M2469.768066,612.276917 
	C2473.074463,619.811462 2470.069092,624.419739 2461.663330,624.942932 
	C2457.045410,625.230408 2452.394775,624.994263 2447.380371,624.994263 
	C2447.380371,619.751953 2447.380371,614.712708 2447.380371,608.849670 
	C2454.727783,610.309937 2462.640625,606.141541 2469.768066,612.276917 
z"/>
</svg>